<svg id="visual" viewBox="0 0 960 540" width="960" height="540" xmlns="http://www.w3.org/2000/svg" xmlns:xlink="http://www.w3.org/1999/xlink" version="1.1"><rect x="0" y="0" width="960" height="540" fill="#ffffff"></rect><path d="M0 150L12.3 154.8C24.7 159.7 49.3 169.3 74 178.8C98.7 188.3 123.3 197.7 148 190.7C172.7 183.7 197.3 160.3 221.8 152.2C246.3 144 270.7 151 295.2 167.8C319.7 184.7 344.3 211.3 369 215C393.7 218.7 418.3 199.3 443 198.2C467.7 197 492.3 214 517 216.3C541.7 218.7 566.3 206.3 591 207.2C615.7 208 640.3 222 664.8 223.7C689.3 225.3 713.7 214.7 738.2 206.5C762.7 198.3 787.3 192.7 812 191.2C836.7 189.7 861.3 192.3 886 198.5C910.7 204.7 935.3 214.3 947.7 219.2L960 224L960 541L947.7 541C935.3 541 910.7 541 886 541C861.3 541 836.7 541 812 541C787.3 541 762.7 541 738.2 541C713.7 541 689.3 541 664.8 541C640.3 541 615.7 541 591 541C566.3 541 541.7 541 517 541C492.3 541 467.7 541 443 541C418.3 541 393.7 541 369 541C344.3 541 319.7 541 295.2 541C270.7 541 246.3 541 221.8 541C197.3 541 172.7 541 148 541C123.3 541 98.7 541 74 541C49.3 541 24.7 541 12.3 541L0 541Z" fill="#7ae1f6"></path><path d="M0 201L12.3 212C24.7 223 49.3 245 74 257.5C98.7 270 123.3 273 148 266.2C172.7 259.3 197.3 242.7 221.8 234.5C246.3 226.3 270.7 226.7 295.2 221.5C319.7 216.3 344.3 205.7 369 206C393.7 206.3 418.3 217.7 443 217.3C467.7 217 492.3 205 517 200C541.7 195 566.3 197 591 206.8C615.7 216.7 640.3 234.3 664.8 235.8C689.3 237.3 713.7 222.7 738.2 225.3C762.7 228 787.3 248 812 250.5C836.7 253 861.3 238 886 230.7C910.7 223.3 935.3 223.7 947.7 223.8L960 224L960 541L947.7 541C935.3 541 910.7 541 886 541C861.3 541 836.7 541 812 541C787.3 541 762.7 541 738.2 541C713.7 541 689.3 541 664.8 541C640.3 541 615.7 541 591 541C566.3 541 541.7 541 517 541C492.3 541 467.7 541 443 541C418.3 541 393.7 541 369 541C344.3 541 319.7 541 295.2 541C270.7 541 246.3 541 221.8 541C197.3 541 172.7 541 148 541C123.3 541 98.7 541 74 541C49.3 541 24.7 541 12.3 541L0 541Z" fill="#6bd4eb"></path><path d="M0 305L12.3 306.3C24.7 307.7 49.3 310.3 74 300.5C98.7 290.7 123.3 268.3 148 256.7C172.7 245 197.3 244 221.8 244.2C246.3 244.3 270.7 245.7 295.2 257.2C319.7 268.7 344.3 290.3 369 290.8C393.7 291.3 418.3 270.7 443 262.8C467.7 255 492.3 260 517 271.2C541.7 282.3 566.3 299.7 591 302.3C615.7 305 640.3 293 664.8 283.3C689.3 273.7 713.7 266.3 738.2 266C762.7 265.7 787.3 272.3 812 275.5C836.7 278.7 861.3 278.3 886 272.5C910.7 266.7 935.3 255.3 947.7 249.7L960 244L960 541L947.7 541C935.3 541 910.7 541 886 541C861.3 541 836.7 541 812 541C787.3 541 762.7 541 738.2 541C713.7 541 689.3 541 664.8 541C640.3 541 615.7 541 591 541C566.3 541 541.7 541 517 541C492.3 541 467.7 541 443 541C418.3 541 393.7 541 369 541C344.3 541 319.7 541 295.2 541C270.7 541 246.3 541 221.8 541C197.3 541 172.7 541 148 541C123.3 541 98.7 541 74 541C49.3 541 24.7 541 12.3 541L0 541Z" fill="#5cc7df"></path><path d="M0 341L12.3 334.5C24.7 328 49.3 315 74 309.8C98.7 304.7 123.3 307.3 148 314.2C172.7 321 197.3 332 221.8 342C246.3 352 270.7 361 295.2 356.2C319.7 351.3 344.3 332.7 369 321.3C393.7 310 418.3 306 443 311.3C467.7 316.7 492.3 331.3 517 339.3C541.7 347.3 566.3 348.7 591 344C615.7 339.3 640.3 328.7 664.8 321C689.3 313.3 713.7 308.7 738.2 307.5C762.7 306.3 787.3 308.7 812 309.5C836.7 310.3 861.3 309.7 886 313.2C910.7 316.7 935.3 324.3 947.7 328.2L960 332L960 541L947.7 541C935.3 541 910.7 541 886 541C861.3 541 836.7 541 812 541C787.3 541 762.7 541 738.2 541C713.7 541 689.3 541 664.8 541C640.3 541 615.7 541 591 541C566.3 541 541.7 541 517 541C492.3 541 467.7 541 443 541C418.3 541 393.7 541 369 541C344.3 541 319.7 541 295.2 541C270.7 541 246.3 541 221.8 541C197.3 541 172.7 541 148 541C123.3 541 98.7 541 74 541C49.3 541 24.7 541 12.3 541L0 541Z" fill="#4cbad4"></path><path d="M0 392L12.3 395.5C24.7 399 49.3 406 74 408.5C98.7 411 123.3 409 148 402.8C172.7 396.7 197.3 386.3 221.8 382.3C246.3 378.3 270.7 380.7 295.2 384.2C319.7 387.7 344.3 392.3 369 388.2C393.7 384 418.3 371 443 372.5C467.7 374 492.3 390 517 391.8C541.7 393.7 566.3 381.3 591 377.2C615.7 373 640.3 377 664.8 376.2C689.3 375.3 713.7 369.7 738.2 373.5C762.7 377.3 787.3 390.7 812 396.5C836.7 402.3 861.3 400.7 886 392.3C910.7 384 935.3 369 947.7 361.5L960 354L960 541L947.7 541C935.3 541 910.7 541 886 541C861.3 541 836.7 541 812 541C787.3 541 762.7 541 738.2 541C713.7 541 689.3 541 664.8 541C640.3 541 615.7 541 591 541C566.3 541 541.7 541 517 541C492.3 541 467.7 541 443 541C418.3 541 393.7 541 369 541C344.3 541 319.7 541 295.2 541C270.7 541 246.3 541 221.8 541C197.3 541 172.7 541 148 541C123.3 541 98.7 541 74 541C49.3 541 24.7 541 12.3 541L0 541Z" fill="#3baec9"></path><path d="M0 427L12.3 429.8C24.7 432.7 49.3 438.3 74 441.3C98.7 444.3 123.3 444.7 148 440.7C172.7 436.7 197.3 428.3 221.8 430C246.3 431.7 270.7 443.3 295.2 444.5C319.7 445.7 344.3 436.3 369 433.8C393.7 431.3 418.3 435.7 443 432.8C467.7 430 492.3 420 517 413.8C541.7 407.7 566.3 405.3 591 411C615.7 416.7 640.3 430.3 664.8 436.3C689.3 442.3 713.7 440.7 738.2 436.3C762.7 432 787.3 425 812 427.2C836.7 429.3 861.3 440.7 886 441.8C910.7 443 935.3 434 947.7 429.5L960 425L960 541L947.7 541C935.3 541 910.7 541 886 541C861.3 541 836.7 541 812 541C787.3 541 762.7 541 738.2 541C713.7 541 689.3 541 664.8 541C640.3 541 615.7 541 591 541C566.3 541 541.7 541 517 541C492.3 541 467.7 541 443 541C418.3 541 393.7 541 369 541C344.3 541 319.7 541 295.2 541C270.7 541 246.3 541 221.8 541C197.3 541 172.7 541 148 541C123.3 541 98.7 541 74 541C49.3 541 24.7 541 12.3 541L0 541Z" fill="#26a1bd"></path><path d="M0 472L12.3 469.7C24.7 467.3 49.3 462.7 74 461.3C98.7 460 123.3 462 148 464.8C172.7 467.7 197.3 471.3 221.8 477.3C246.3 483.3 270.7 491.7 295.2 488.5C319.7 485.3 344.3 470.7 369 464.5C393.7 458.3 418.3 460.7 443 465.2C467.7 469.7 492.3 476.3 517 478.7C541.7 481 566.3 479 591 478.5C615.7 478 640.3 479 664.8 478C689.3 477 713.7 474 738.2 475.3C762.7 476.7 787.3 482.3 812 481.8C836.7 481.3 861.3 474.7 886 473.3C910.7 472 935.3 476 947.7 478L960 480L960 541L947.7 541C935.3 541 910.7 541 886 541C861.3 541 836.7 541 812 541C787.3 541 762.7 541 738.2 541C713.7 541 689.3 541 664.8 541C640.3 541 615.7 541 591 541C566.3 541 541.7 541 517 541C492.3 541 467.7 541 443 541C418.3 541 393.7 541 369 541C344.3 541 319.7 541 295.2 541C270.7 541 246.3 541 221.8 541C197.3 541 172.7 541 148 541C123.3 541 98.7 541 74 541C49.3 541 24.7 541 12.3 541L0 541Z" fill="#0095b2"></path></svg>