<svg id="visual" viewBox="0 0 960 300" width="960" height="300" xmlns="http://www.w3.org/2000/svg" xmlns:xlink="http://www.w3.org/1999/xlink" version="1.1"><rect x="0" y="0" width="960" height="300" fill="#0095B2"></rect><path d="M0 132L137 108L274 118L411 92L549 110L686 151L823 77L960 112L960 301L823 301L686 301L549 301L411 301L274 301L137 301L0 301Z" fill="#ffc96b"></path><path d="M0 160L137 200L274 159L411 200L549 198L686 183L823 128L960 177L960 301L823 301L686 301L549 301L411 301L274 301L137 301L0 301Z" fill="#ffba4f"></path><path d="M0 189L137 181L274 216L411 234L549 172L686 204L823 186L960 172L960 301L823 301L686 301L549 301L411 301L274 301L137 301L0 301Z" fill="#ffaa30"></path><path d="M0 248L137 271L274 222L411 250L549 260L686 257L823 246L960 262L960 301L823 301L686 301L549 301L411 301L274 301L137 301L0 301Z" fill="#ff9900"></path></svg>