<svg id="visual" viewBox="0 0 960 400" width="960" height="400" xmlns="http://www.w3.org/2000/svg" xmlns:xlink="http://www.w3.org/1999/xlink" version="1.1"><path d="M681 400L708.2 386.7C735.3 373.3 789.7 346.7 783.2 320C776.7 293.3 709.3 266.7 709.3 240C709.3 213.3 776.7 186.7 784.7 160C792.7 133.3 741.3 106.7 718.8 80C696.3 53.3 702.7 26.7 705.8 13.3L709 0L960 0L960 13.3C960 26.7 960 53.3 960 80C960 106.7 960 133.3 960 160C960 186.7 960 213.3 960 240C960 266.7 960 293.3 960 320C960 346.7 960 373.3 960 386.7L960 400Z" fill="#ff9900"></path><path d="M594 400L602 386.7C610 373.3 626 346.7 594 320C562 293.3 482 266.7 496.5 240C511 213.3 620 186.7 628 160C636 133.3 543 106.7 493.3 80C443.7 53.3 437.3 26.7 434.2 13.3L431 0L710 0L706.8 13.3C703.7 26.7 697.3 53.3 719.8 80C742.3 106.7 793.7 133.3 785.7 160C777.7 186.7 710.3 213.3 710.3 240C710.3 266.7 777.7 293.3 784.2 320C790.7 346.7 736.3 373.3 709.2 386.7L682 400Z" fill="#8b5502"></path><path d="M441 400L442.5 386.7C444 373.3 447 346.7 424.5 320C402 293.3 354 266.7 370 240C386 213.3 466 186.7 477.2 160C488.3 133.3 430.7 106.7 400.3 80C370 53.3 367 26.7 365.5 13.3L364 0L432 0L435.2 13.3C438.3 26.7 444.7 53.3 494.3 80C544 106.7 637 133.3 629 160C621 186.7 512 213.3 497.5 240C483 266.7 563 293.3 595 320C627 346.7 611 373.3 603 386.7L595 400Z" fill="#4e2f00"></path><path d="M258 400L280.5 386.7C303 373.3 348 346.7 333.7 320C319.3 293.3 245.7 266.7 261.7 240C277.7 213.3 383.3 186.7 404.2 160C425 133.3 361 106.7 311.3 80C261.7 53.3 226.3 26.7 208.7 13.3L191 0L365 0L366.5 13.3C368 26.7 371 53.3 401.3 80C431.7 106.7 489.3 133.3 478.2 160C467 186.7 387 213.3 371 240C355 266.7 403 293.3 425.5 320C448 346.7 445 373.3 443.5 386.7L442 400Z" fill="#8b5502"></path><path d="M0 400L0 386.7C0 373.3 0 346.7 0 320C0 293.3 0 266.7 0 240C0 213.3 0 186.7 0 160C0 133.3 0 106.7 0 80C0 53.3 0 26.7 0 13.3L0 0L192 0L209.7 13.3C227.3 26.7 262.7 53.3 312.3 80C362 106.7 426 133.3 405.2 160C384.3 186.7 278.7 213.3 262.7 240C246.7 266.7 320.3 293.3 334.7 320C349 346.7 304 373.3 281.5 386.7L259 400Z" fill="#ff9900"></path></svg>